<?xml version="1.0" standalone="no"?>
<!DOCTYPE svg PUBLIC "-//W3C//DTD SVG 20010904//EN"
 "http://www.w3.org/TR/2001/REC-SVG-20010904/DTD/svg10.dtd">
<svg version="1.0" xmlns="http://www.w3.org/2000/svg"
 width="512.000000pt" height="512.000000pt" viewBox="0 0 512.000000 512.000000"
 preserveAspectRatio="xMidYMid meet">

<g transform="translate(0.000000,512.000000) scale(0.100000,-0.100000)"
fill="white" stroke="none">
<path d="M2355 4794 c-781 -80 -1452 -537 -1794 -1222 -114 -227 -172 -413
-217 -687 -25 -152 -25 -476 0 -630 117 -722 519 -1299 1141 -1641 619 -340
1374 -363 2019 -59 430 202 812 569 1026 986 283 550 327 1166 128 1764 -40
121 -162 369 -235 480 -350 530 -876 874 -1508 986 -107 19 -457 34 -560 23z
m344 -1113 c75 -43 217 -124 316 -181 99 -57 243 -139 320 -183 77 -44 160
-91 185 -105 88 -49 80 18 80 -643 l0 -588 -27 -19 c-24 -17 -444 -259 -573
-330 -25 -13 -88 -50 -140 -80 -144 -84 -303 -172 -311 -172 -4 0 -52 26 -107
59 -54 32 -130 75 -168 96 -65 36 -302 172 -351 202 l-23 13 0 589 c0 668 -11
593 95 651 33 18 113 64 178 102 65 37 119 68 121 68 2 0 61 34 132 75 76 44
132 71 138 66 6 -4 36 -22 66 -38 30 -16 171 -96 313 -178 l257 -147 0 -368 0
-369 -57 -32 c-74 -41 -303 -172 -457 -260 -116 -68 -143 -78 -161 -60 -6 4
-41 25 -80 46 -38 21 -87 49 -107 62 l-38 23 0 363 0 363 88 51 c48 28 104 60
126 72 l38 22 99 -57 c54 -31 99 -59 99 -63 0 -3 -54 -37 -120 -75 l-120 -68
0 -248 c0 -246 0 -247 23 -257 19 -9 50 6 218 101 107 61 207 119 222 128 l26
18 0 239 c0 257 2 246 -54 277 -11 6 -104 59 -207 118 l-187 106 -108 -63
c-59 -35 -159 -92 -220 -127 l-113 -63 0 -476 0 -476 98 -54 c53 -30 150 -85
214 -123 64 -37 121 -68 127 -68 12 0 128 63 321 175 159 92 388 223 463 264
l57 32 0 478 0 479 -87 50 c-49 27 -106 60 -128 72 -39 21 -158 90 -453 260
-78 45 -151 84 -161 87 -10 3 -36 -6 -57 -19 -22 -14 -66 -39 -99 -57 -57 -31
-191 -108 -475 -272 -74 -42 -151 -86 -170 -96 l-35 -20 -2 -584 c-2 -321 -5
-590 -8 -597 -5 -13 -40 3 -162 75 l-43 25 0 598 0 598 113 65 c61 36 135 77
162 93 28 15 106 59 175 99 132 76 344 198 495 283 50 28 94 52 99 52 5 0 70
-35 145 -79z"/>
</g>
</svg>
